# xmcd
#
# Track frame offsets: 
#        150
#        13421
#        27505
#        40217
#        53874
#        65379
#        76377
#        87867
#        100860
#        113432
#        126793
#        140067
#        153693
#
# Disc length: 2344 seconds
#
# Revision: 2
# Processed by: cddbd v1.5.2PL0 Copyright (c) Steve Scherf et al.
# Submitted via: ExactAudioCopy v0.99pb4
#
DISCID=ad09260d
DTITLE=B.B. King - Quadromania Disk 3 von 4
DYEAR=2005
DGENRE=Blues
TTITLE0=When My Heart Beats Like A Hammer
TTITLE1=Whole Lotta Love
TTITLE2=Everyday I Have The Blues
TTITLE3=Sweet Little Angel
TTITLE4=Early Every Morning
TTITLE5=You Don't Know
TTITLE6=Did You Ever Love A Woman
TTITLE7=Bad Luck
TTITLE8=Ten Long Years
TTITLE9=Crying Won't Help You
TTITLE10=On My Word Of Honour
TTITLE11=Sweet Little Angel 2
TTITLE12=Everyday I Have The Blues 2
EXTD=
EXTT0=
EXTT1=
EXTT2=
EXTT3=
EXTT4=
EXTT5=
EXTT6=
EXTT7=
EXTT8=
EXTT9=
EXTT10=
EXTT11=
EXTT12=
PLAYORDER=
